<svg width="48" height="48" viewBox="0 0 48 48" fill="none" xmlns="http://www.w3.org/2000/svg">
<path d="M24 0C10.6909 0 0 10.6909 0 24C0 37.3091 10.6909 48 24 48C37.3091 48 48 37.3091 48 24C48 10.6909 37.3091 0 24 0ZM34.9091 28.3636H28.3636V34.9091C28.3636 37.3091 26.4 39.2727 24 39.2727C21.6 39.2727 19.6364 37.3091 19.6364 34.9091V28.3636H13.0909C10.6909 28.3636 8.72727 26.4 8.72727 24C8.72727 21.6 10.6909 19.6364 13.0909 19.6364H19.6364V13.0909C19.6364 10.6909 21.6 8.72727 24 8.72727C26.4 8.72727 28.3636 10.6909 28.3636 13.0909V19.6364H34.9091C37.3091 19.6364 39.2727 21.6 39.2727 24C39.2727 26.4 37.3091 28.3636 34.9091 28.3636Z" fill="#444858"/>
</svg>
